<?xml version="1.0" encoding="UTF-8"?>
<svg id="Layer_2" xmlns="http://www.w3.org/2000/svg" version="1.1" viewBox="0 0 50 30">
  <!-- Generator: Adobe Illustrator 29.8.2, SVG Export Plug-In . SVG Version: 2.1.1 Build 3)  -->
  <defs>
    <style>
      .st0 {
        fill: #f2213a;
      }

      .st1 {
        fill: #ff6b9f;
      }

      .st2 {
        fill: #fff;
      }

      .st3 {
        fill: #ffda34;
      }

      .st4 {
        fill: #732a36;
      }

      .st5 {
        fill: #ff6a26;
      }

      .st6 {
        fill: none;
        stroke: #752ed1;
        stroke-miterlimit: 10;
        stroke-width: .75px;
      }

      .st7 {
        fill: #297ce7;
      }

      .st8 {
        fill: #752ed1;
      }

      .st9 {
        fill: #00b754;
      }

      .st10 {
        fill: #13a3f6;
      }
    </style>
  </defs>
  <rect class="st7" x="3.75" y="20" width="46.25" height="5"/>
  <rect class="st8" x="3.75" y="25" width="46.25" height="5"/>
  <rect class="st9" x="3.75" y="15" width="46.25" height="5"/>
  <rect class="st3" x="3.75" y="10" width="46.25" height="5"/>
  <rect class="st5" x="3.75" y="5" width="46.25" height="5"/>
  <rect class="st0" x="3.75" width="46.25" height="5"/>
  <polygon points="30 15 15 30 7.5 30 7.5 0 15 0 30 15"/>
  <polygon class="st4" points="26.25 15 11.25 30 7.5 30 7.5 0 11.25 0 26.25 15"/>
  <polygon class="st10" points="22.5 15 7.5 30 0 30 0 0 7.5 0 22.5 15"/>
  <polygon class="st1" points="18.75 15 3.76 30 0 30 0 0 3.75 0 18.75 15"/>
  <polygon class="st2" points="15 15 0 30 0 0 15 15"/>
  <polygon class="st3" points="11.26 15 0 26.26 0 3.75 11.26 15"/>
  <circle class="st6" cx="4.37" cy="15" r="3.13"/>
</svg>