<svg width="120" height="72" viewBox="0 0 120 72" fill="none" xmlns="http://www.w3.org/2000/svg">
<path d="M120 48H0V72H120V48Z" fill="#402266"/>
<path d="M120 24H0V48H120V24Z" fill="#EB3D7C"/>
<path d="M120 0H0V24H120V0Z" fill="#13A3F6"/>
<path fill-rule="evenodd" clip-rule="evenodd" d="M24 0L48 24L0 72V0H24Z" fill="white"/>
<path d="M24.5371 36.1483L34.3714 25.6147C34.7794 25.1774 35.0066 24.6005 35.0066 24C35.0066 23.3995 34.7794 22.8224 34.3714 22.3852L24.5371 11.8516C22.8875 10.0795 20.5732 9.07685 18.1541 9.07685H17.8159C13.7412 9.07685 10.267 12.0207 9.59657 16.0371C9.15355 18.6953 10.0221 21.4001 11.9225 23.3004L12.622 24L11.9225 24.6996C10.0221 26.5999 9.15355 29.3047 9.59657 31.963C10.267 35.9794 13.7412 38.9232 17.8159 38.9232H18.1541C20.5732 38.9232 22.8875 37.9205 24.5371 36.1483Z" fill="#FF9D0A"/>
</svg>
