<svg width="120" height="109" viewBox="0 0 120 109" fill="none" xmlns="http://www.w3.org/2000/svg">
<path d="M34.5273 105.542L32.7359 98.8566C28.4855 97.2306 25.0478 93.6641 23.7783 88.9386L27.9768 87.815L21.0562 62.0222L4.45322 66.4648C1.24908 67.3222 -0.652398 70.6112 0.206149 73.8107L4.01775 88.0164C4.87628 91.2161 8.16975 93.115 11.3739 92.2577L17.9709 90.4925C20.1371 98.5591 26.7887 104.229 34.5273 105.542Z" fill="#F2213A"/>
<path d="M38.2381 48.2103L24.9255 60.9867L31.8461 86.7796L49.7551 91.1928L38.2381 48.2103Z" fill="#FF6A26"/>
<path d="M50.2902 93.1891C48.3786 96.102 45.429 98.3508 41.7955 99.3231C38.6813 100.156 35.5327 99.9267 32.7359 98.8566L34.5273 105.542C37.3779 106.026 40.3759 105.919 43.3517 105.123C46.7729 104.207 49.7636 102.488 52.175 100.224L50.2902 93.1891Z" fill="#FF6A26"/>
<path d="M56.5681 54.2695C55.3815 54.2874 54.1946 54.5468 53.0828 55.052C49.2003 56.8168 47.1634 61.1249 48.2682 65.2424L48.3599 65.5843C49.0159 68.0288 50.6579 70.0961 52.8986 71.2834L62.4941 76.3855L67.6429 95.601L57.1507 93.0153C56.0277 95.7321 54.3335 98.1964 52.175 100.224L50.2902 93.1891C50.6344 92.6643 50.9452 92.118 51.22 91.5537L49.7551 91.1928L38.2381 48.2103L51.5273 35.4566L56.5681 54.2695Z" fill="#FF9D0A"/>
<path d="M86.2014 100.174L76.9336 65.5867L69.4923 77.4945C69.1606 78.0252 68.6382 78.4111 68.0306 78.5738C67.4231 78.7364 66.7773 78.6628 66.2244 78.3689L62.4941 76.3855L67.6429 95.601L86.2014 100.174Z" fill="#00B754"/>
<path d="M65.3147 22.2244L51.5273 35.4566L56.5681 54.2695C58.1245 54.2459 59.68 54.6379 61.0634 55.4356L61.9612 55.9531L62.4794 55.0566C63.8871 52.6216 66.3886 51.0116 69.1988 50.7394C70.5569 50.6083 71.8817 50.7967 73.0917 51.2484L65.3147 22.2244Z" fill="#00B754"/>
<path d="M86.2014 100.174L104.291 104.632L78.7263 9.35311L65.3147 22.2244L73.0917 51.2484C75.6649 52.209 77.719 54.3601 78.4705 57.1609L78.5622 57.5026C79.2183 59.9473 78.8311 62.5574 77.4851 64.7043L76.9336 65.5867L86.2014 100.174Z" fill="#297CE7"/>
<path d="M119.794 100.605L94.1685 5.10014C93.3098 1.9004 90.0163 0.00151062 86.8123 0.858881C83.6082 1.71626 81.7067 5.0052 82.5652 8.20496L108.191 103.71C109.049 106.91 112.343 108.808 115.547 107.951C118.751 107.094 120.652 103.804 119.794 100.605Z" fill="#752ED1"/>
</svg>
