<svg width="113" height="97" viewBox="0 0 113 97" fill="none" xmlns="http://www.w3.org/2000/svg">
<path d="M94.3155 64.6051H18.6846L35.8356 80.6172H77.1644L94.3155 64.6051Z" fill="#297CE7"/>
<path d="M77.1644 80.6172H35.8356L50.4267 94.2393C52.0711 95.7741 54.2417 96.6292 56.5 96.6292C58.7583 96.6292 60.9289 95.7741 62.5733 94.2393L77.1644 80.6172Z" fill="#752ED1"/>
<path d="M108.824 48.5929H12.3527V58.6937L18.6846 64.6051H94.3155L102.192 57.2512C104.9 54.7306 107.13 51.7974 108.824 48.5929Z" fill="#00B754"/>
<path d="M112.629 33.2905V32.5809H12.3527V48.5929H108.824C111.292 43.9228 112.621 38.6765 112.629 33.2905Z" fill="#FFDA34"/>
<path d="M108.588 16.5687H12.3527V32.5809H112.629V31.9245C112.621 26.3777 111.162 21.128 108.588 16.5687Z" fill="#FF6A26"/>
<path d="M108.588 16.5687C104.058 8.54709 96.0722 2.66252 86.4501 1.0565C76.4521 -0.609829 66.2787 2.65705 59.1311 9.80472L56.5 12.4358L53.869 9.80472C46.7213 2.65705 36.5479 -0.609829 26.55 1.0565C21.2098 1.94782 16.3737 4.15702 12.3527 7.31799V16.5687H108.588Z" fill="#F2213A"/>
<path d="M38.1521 82.7798L72.2608 48.5929L25.1076 1.3317C10.7438 4.41935 0.371094 17.1375 0.371094 31.9713V33.2429C0.371094 42.342 4.14226 51.0463 10.8076 57.2512L38.1521 82.7798Z" fill="black"/>
<path d="M31.9487 76.9884L60.2792 48.5929L16.4027 4.61595C6.73794 10.0266 0.371094 20.3496 0.371094 31.9713V33.2429C0.371094 42.342 4.14226 51.0463 10.8076 57.2512L31.9487 76.9884Z" fill="#732A36"/>
<path d="M25.7453 71.1969L48.2976 48.5929L9.57464 9.78126C3.85258 15.4937 0.371094 23.3774 0.371094 31.9713V33.2429C0.371094 42.342 4.14226 51.0463 10.8076 57.2512L25.7453 71.1969Z" fill="#13A3F6"/>
<path d="M19.5419 65.4055L10.8076 57.2512C4.14226 51.0463 0.371094 42.342 0.371094 33.2429V31.9713C0.371094 26.4196 1.824 21.1642 4.39527 16.5992L36.316 48.593L19.5419 65.4055Z" fill="#FF6B9F"/>
<path d="M13.3384 59.614L10.8076 57.2512C4.14226 51.0463 0.371094 42.342 0.371094 33.2429V31.9713C0.371094 29.6854 0.617401 27.4498 1.08667 25.292L24.3343 48.5929L13.3384 59.614Z" fill="white"/>
</svg>
