<svg width="272" height="52" viewBox="0 0 272 52" fill="none" xmlns="http://www.w3.org/2000/svg">
<path d="M19.3779 40.8472C15.3431 40.8472 11.8637 39.9823 8.93936 38.2526C6.05211 36.5229 3.83115 34.1353 2.27649 31.0895C0.758828 28.0062 0 24.4715 0 20.4858C0 16.4248 0.777338 12.8527 2.33202 9.7693C3.9237 6.68596 6.18169 4.29824 9.10594 2.60618C12.0302 0.876497 15.5097 0.0116577 19.5444 0.0116577C23.5422 0.0116577 26.9847 0.857699 29.8718 2.54978C32.7591 4.24183 34.9801 6.61074 36.5348 9.65649C38.1265 12.7022 38.9223 16.2556 38.9223 20.3166C38.9223 24.3024 38.1265 27.8557 36.5348 30.9767C34.9801 34.0601 32.7407 36.4854 29.8163 38.2526C26.9291 39.9823 23.4496 40.8472 19.3779 40.8472ZM19.4889 33.2892C22.154 33.2892 24.3194 32.6687 25.9852 31.4278C27.6509 30.1871 28.854 28.589 29.5942 26.6337C30.3716 24.6784 30.7603 22.6291 30.7603 20.4858C30.7603 18.9065 30.5382 17.346 30.094 15.8044C29.6868 14.2628 29.039 12.8714 28.1507 11.6305C27.2623 10.3897 26.0962 9.41211 24.6527 8.69764C23.209 7.94563 21.4693 7.56959 19.4334 7.56959C16.8052 7.56959 14.6583 8.19001 12.9926 9.43088C11.3269 10.6341 10.0868 12.2135 9.2725 14.1687C8.49516 16.124 8.1065 18.2109 8.1065 20.4294C8.1065 22.6479 8.49516 24.7348 9.2725 26.6901C10.0868 28.6454 11.3269 30.2435 12.9926 31.4842C14.6953 32.6876 16.8607 33.2892 19.4889 33.2892Z" fill="black"/>
<path d="M57.5497 40.8472C53.7 40.8472 50.5351 40.1139 48.0551 38.6474C45.6121 37.181 43.7984 35.0753 42.6137 32.3303C41.4663 29.5854 40.8925 26.2953 40.8925 22.4599V0.462879H48.8325V22.8547C48.8325 24.6595 49.0914 26.3704 49.6098 27.9873C50.165 29.5666 51.0721 30.8639 52.3304 31.8791C53.6262 32.8567 55.3843 33.3456 57.6052 33.3456C59.8631 33.3456 61.6029 32.8567 62.8245 31.8791C64.0461 30.8639 64.8976 29.5478 65.3786 27.9309C65.8597 26.314 66.1004 24.622 66.1004 22.8547V0.462879H74.0404V22.4599C74.0404 26.2576 73.4664 29.5478 72.3191 32.3303C71.1718 35.0753 69.3764 37.181 66.9333 38.6474C64.4902 40.1139 61.3623 40.8472 57.5497 40.8472Z" fill="black"/>
<path d="M88.2159 40.3959V7.96441H76.2227V0.462879H108.26V7.96441H96.2113V40.3959H88.2159Z" fill="black"/>
<path d="M116.949 40.7908C115.58 40.7908 114.173 40.6403 112.729 40.3395C111.285 40.0387 109.953 39.5311 108.731 38.8166C107.51 38.0646 106.473 37.0682 105.622 35.8273C104.77 34.5489 104.215 32.9695 103.956 31.0895H111.84C112.063 31.7663 112.451 32.3492 113.006 32.838C113.598 33.3268 114.265 33.684 115.006 33.9096C115.782 34.1353 116.56 34.2481 117.337 34.2481C117.855 34.2481 118.374 34.2104 118.892 34.1353C119.411 34.0601 119.891 33.9096 120.335 33.684C120.779 33.4584 121.132 33.1764 121.391 32.838C121.65 32.462 121.78 31.9919 121.78 31.4278C121.78 30.8263 121.594 30.3563 121.224 30.0178C120.854 29.6794 120.335 29.4162 119.669 29.2282C119.004 29.0026 118.244 28.7958 117.393 28.6077C115.875 28.2693 114.247 27.8933 112.507 27.4797C110.767 27.0662 109.268 26.4645 108.009 25.6748C107.491 25.2988 107.029 24.8851 106.621 24.434C106.214 23.9828 105.881 23.4751 105.622 22.9111C105.363 22.347 105.159 21.7642 105.011 21.1627C104.863 20.5235 104.789 19.8466 104.789 19.1321C104.789 17.5153 105.122 16.1428 105.788 15.0147C106.492 13.8491 107.417 12.9091 108.565 12.1946C109.712 11.4802 110.989 10.9726 112.396 10.6718C113.803 10.3333 115.246 10.1641 116.727 10.1641C118.726 10.1641 120.576 10.5025 122.279 11.1794C123.982 11.8186 125.388 12.8338 126.499 14.2251C127.609 15.5787 128.294 17.346 128.553 19.5269H121.113C120.965 18.6997 120.465 18.0417 119.614 17.5529C118.763 17.0265 117.707 16.7632 116.449 16.7632C116.005 16.7632 115.523 16.8009 115.006 16.876C114.524 16.9512 114.08 17.0829 113.673 17.2709C113.266 17.4588 112.933 17.7221 112.673 18.0604C112.414 18.3613 112.285 18.7749 112.285 19.3013C112.285 19.7149 112.396 20.091 112.618 20.4294C112.877 20.7678 113.229 21.0499 113.673 21.2754C114.153 21.501 114.728 21.7078 115.394 21.8958C116.652 22.1967 117.912 22.4787 119.17 22.7419C120.465 22.9675 121.612 23.2119 122.612 23.4751C123.834 23.7384 124.944 24.1708 125.944 24.7723C126.979 25.374 127.812 26.2012 128.442 27.2541C129.109 28.2693 129.441 29.6042 129.441 31.2586C129.441 33.1387 129.072 34.6992 128.331 35.9401C127.591 37.1433 126.592 38.1022 125.332 38.8166C124.112 39.5311 122.76 40.0387 121.279 40.3395C119.836 40.6403 118.392 40.7908 116.949 40.7908Z" fill="#F2213A"/>
<path d="M131.323 51.5074V10.6718H138.596L138.985 14.3944C140.169 12.9278 141.52 11.8561 143.038 11.1794C144.594 10.5025 146.296 10.1641 148.146 10.1641C151.034 10.1641 153.422 10.841 155.309 12.1946C157.197 13.5483 158.604 15.3908 159.529 17.7221C160.492 20.0158 160.972 22.5915 160.972 25.4492C160.972 28.3821 160.473 31.0142 159.474 33.3456C158.511 35.6393 157.049 37.463 155.087 38.8166C153.126 40.1327 150.682 40.7908 147.757 40.7908C146.499 40.7908 145.315 40.6403 144.205 40.3395C143.094 40.0387 142.114 39.6439 141.261 39.155C140.41 38.6286 139.688 38.0458 139.097 37.4066V51.5074H131.323ZM146.426 33.684C148.166 33.684 149.534 33.2892 150.534 32.4995C151.534 31.7099 152.237 30.7135 152.644 29.5102C153.051 28.2693 153.254 26.9909 153.254 25.6748C153.254 24.246 153.033 22.8923 152.589 21.6138C152.144 20.3354 151.404 19.3202 150.367 18.5681C149.368 17.7785 147.998 17.3837 146.259 17.3837C144.704 17.3837 143.39 17.7785 142.317 18.5681C141.243 19.3202 140.428 20.3166 139.873 21.5574C139.318 22.7983 139.04 24.1332 139.04 25.562C139.04 26.9909 139.3 28.3257 139.818 29.5666C140.373 30.8075 141.188 31.8039 142.261 32.5559C143.372 33.308 144.76 33.684 146.426 33.684Z" fill="#FF6A26"/>
<path d="M175.474 40.7908C172.512 40.7908 169.92 40.1891 167.7 38.9858C165.479 37.745 163.758 35.9965 162.536 33.7404C161.315 31.4467 160.703 28.7394 160.703 25.6184C160.703 22.4223 161.315 19.6774 162.536 17.3837C163.795 15.0523 165.535 13.2663 167.756 12.0254C169.977 10.7846 172.53 10.1641 175.417 10.1641C178.379 10.1641 180.951 10.8033 183.135 12.0818C185.319 13.3603 187.022 15.1464 188.243 17.4401C189.465 19.7338 190.076 22.4787 190.076 25.6748C190.076 28.7958 189.465 31.5031 188.243 33.7968C187.059 36.0529 185.374 37.7826 183.191 38.9858C181.044 40.1891 178.471 40.7908 175.474 40.7908ZM175.362 33.5712C177.065 33.5712 178.434 33.1951 179.471 32.4431C180.507 31.6911 181.248 30.7135 181.692 29.5102C182.173 28.2693 182.414 26.9721 182.414 25.6184C182.414 24.2648 182.173 22.9675 181.692 21.7266C181.248 20.4858 180.507 19.4705 179.471 18.6809C178.471 17.8537 177.101 17.4401 175.362 17.4401C173.697 17.4401 172.345 17.8537 171.308 18.6809C170.272 19.4705 169.513 20.4858 169.032 21.7266C168.589 22.9675 168.366 24.2648 168.366 25.6184C168.366 27.0097 168.589 28.3069 169.032 29.5102C169.513 30.7135 170.272 31.6911 171.308 32.4431C172.345 33.1951 173.697 33.5712 175.362 33.5712Z" fill="#FF9D0A"/>
<path d="M189.843 40.3959V7.29075L197.616 8.45264V22.065H201.448L208.61 10.6718H217.327L208 24.8287L218.105 40.3959H209.11L201.78 29.1154H197.616V40.3959H189.843Z" fill="#00B754"/>
<path d="M228.882 41.2314C225.808 41.2314 223.199 40.6109 221.052 39.37C218.905 38.1292 217.258 36.3807 216.111 34.1246C214.962 31.8309 214.389 29.1613 214.389 26.1154C214.389 23.0322 214.982 20.3436 216.166 18.0499C217.35 15.7187 219.016 13.895 221.164 12.5789C223.347 11.2628 225.92 10.6047 228.882 10.6047C231.102 10.6047 233.046 10.9808 234.711 11.7328C236.414 12.4849 237.839 13.5377 238.987 14.8914C240.17 16.245 241.041 17.8243 241.596 19.6291C242.188 21.3964 242.466 23.3142 242.429 25.3823C242.429 25.9087 242.411 26.4163 242.373 26.9051C242.336 27.394 242.263 27.8827 242.151 28.3716H222.107C222.218 29.4996 222.532 30.5337 223.051 31.4737C223.569 32.4138 224.291 33.1658 225.217 33.7298C226.179 34.2562 227.364 34.5195 228.77 34.5195C229.695 34.5195 230.547 34.4254 231.324 34.2374C232.102 34.0118 232.768 33.6734 233.323 33.2222C233.878 32.7709 234.267 32.2446 234.489 31.6429H242.151C241.67 33.8615 240.763 35.6852 239.431 37.114C238.135 38.5428 236.561 39.5956 234.711 40.2725C232.86 40.9118 230.917 41.2314 228.882 41.2314ZM222.274 22.8441H234.989C234.952 21.8289 234.693 20.8889 234.211 20.024C233.767 19.1216 233.082 18.4071 232.157 17.8807C231.269 17.3166 230.12 17.0346 228.714 17.0346C227.308 17.0346 226.124 17.3166 225.161 17.8807C224.236 18.4447 223.532 19.178 223.051 20.0804C222.607 20.9452 222.347 21.8665 222.274 22.8441Z" fill="#297CE7"/>
<path d="M244.348 40.8365V11.1124H251.622L252.011 14.5529C252.825 13.5377 253.75 12.7481 254.787 12.1841C255.86 11.5824 256.934 11.1688 258.007 10.9432C259.117 10.7175 260.118 10.6047 261.006 10.6047C263.819 10.6047 266.002 11.2252 267.558 12.4661C269.149 13.7069 270.278 15.3802 270.944 17.4859C271.647 19.554 272 21.8665 272 24.4234V40.8365H264.227V25.4387C264.227 24.5362 264.152 23.6337 264.004 22.7314C263.856 21.8289 263.578 21.0016 263.171 20.2496C262.801 19.4975 262.264 18.896 261.561 18.4447C260.857 17.9935 259.932 17.7679 258.785 17.7679C257.304 17.7679 256.064 18.144 255.065 18.896C254.065 19.648 253.324 20.6633 252.844 21.9417C252.362 23.2201 252.122 24.6302 252.122 26.1718V40.8365H244.348Z" fill="#752ED1"/>
</svg>
