<svg width="88" height="129" viewBox="0 0 88 129" fill="none" xmlns="http://www.w3.org/2000/svg">
<path fill-rule="evenodd" clip-rule="evenodd" d="M44.0001 7.11771C41.3356 7.11771 39.2536 9.23771 39.2536 11.7573C39.2536 14.2769 41.3356 16.3969 44.0001 16.3969C45.9223 16.3969 47.4806 17.9551 47.4806 19.8774V28.033L83.5335 47.7425C90.4906 51.5458 87.7895 62.1182 79.8605 62.1182H8.13966C0.21075 62.1182 -2.49046 51.5458 4.4667 47.7425L40.5196 28.033V22.8353C35.774 21.3713 32.2926 16.9921 32.2926 11.7573C32.2926 5.3077 37.5773 0.156738 44.0001 0.156738C50.4229 0.156738 55.7076 5.3077 55.7076 11.7573C55.7076 13.6795 54.1493 15.2378 52.2271 15.2378C50.3048 15.2378 48.7466 13.6795 48.7466 11.7573C48.7466 9.2377 46.6646 7.11771 44.0001 7.11771ZM44.0001 34.0635L7.80575 53.8503C7.57079 53.9788 7.50716 54.0995 7.47836 54.1726C7.43689 54.2779 7.41627 54.4418 7.46523 54.6334C7.51418 54.825 7.61092 54.959 7.6978 55.0315C7.75812 55.0818 7.87188 55.1572 8.13966 55.1572H79.8605C80.1283 55.1572 80.242 55.0818 80.3024 55.0315C80.3892 54.959 80.486 54.825 80.5349 54.6334C80.5839 54.4418 80.5633 54.2779 80.5218 54.1726C80.493 54.0995 80.4294 53.9788 80.1944 53.8503L44.0001 34.0635Z" fill="#796EFC"/>
<path fill-rule="evenodd" clip-rule="evenodd" d="M13.3876 76.1589C12.8344 77.6148 12.4973 79.1492 12.4973 80.7066V119.603C12.4973 120.721 13.1514 121.738 14.1817 122.171C23.353 126.026 33.4278 128.157 44.0001 128.157C54.5724 128.157 64.6472 126.026 73.8185 122.171C74.8488 121.738 75.5029 120.721 75.5029 119.603V80.7066C75.5029 79.1492 75.1658 77.6148 74.6126 76.1589C72.496 70.5885 71.3371 64.5462 71.3371 58.2333C71.3371 51.9971 72.468 46.0251 74.5359 40.511C75.0493 39.142 74.5265 37.5804 73.2474 36.8719L65.8644 32.7826C64.3171 31.9256 62.3674 32.6775 61.8926 34.3814C60.4718 39.4795 59.7099 44.7558 59.6168 50.0482C59.5964 51.2053 58.9163 52.2648 57.8287 52.6601C53.5139 54.2285 48.8569 55.0839 44.0001 55.0839C39.1433 55.0839 34.4863 54.2285 30.1715 52.6601C29.0839 52.2648 28.4038 51.2053 28.3834 50.0482C28.2903 44.7558 27.5284 39.4795 26.1076 34.3814C25.6328 32.6775 23.6831 31.9256 22.1357 32.7827L14.7528 36.8719C13.4737 37.5804 12.9509 39.142 13.4643 40.511C15.5322 46.0251 16.6631 51.9971 16.6631 58.2333C16.6631 64.5462 15.5042 70.5885 13.3876 76.1589ZM42.9776 81.9728L35.567 75.2414C34.3203 74.1121 33.6149 72.528 33.6149 70.8721V70.6407C33.6149 67.8515 35.6859 65.4734 38.5115 65.0145C40.3816 64.7112 42.2845 65.3058 43.6214 66.6066L44.1135 67.0854L44.6057 66.6066C45.9426 65.3058 47.8455 64.7112 49.7155 65.0145C52.5412 65.4734 54.6122 67.8515 54.6122 70.6407V70.8721C54.6122 72.528 53.9068 74.1121 52.6601 75.2414L45.2495 81.9728C44.9419 82.2522 44.5359 82.4078 44.1135 82.4078C43.6911 82.4078 43.2851 82.2522 42.9776 81.9728Z" fill="#FF6B9F"/>
</svg>
