<svg width="120" height="120" viewBox="0 0 120 120" fill="none" xmlns="http://www.w3.org/2000/svg">
<path d="M20 104.722V15.2779C7.72502 26.2643 0 42.23 0 60C0 77.77 7.72502 93.7357 20 104.722Z" fill="#F2213A"/>
<path d="M40 116.586V3.41411C32.5475 6.04815 25.7709 10.1127 20 15.2779V104.722C25.7709 109.887 32.5475 113.952 40 116.586Z" fill="#FF6A26"/>
<path d="M60 120V0C52.9872 0 46.2555 1.20308 40 3.41411V116.586C46.2555 118.797 52.9872 120 60 120Z" fill="#FF9D0A"/>
<path d="M80 116.586V3.41411C73.7445 1.20308 67.0128 0 60 0V120C67.0128 120 73.7445 118.797 80 116.586Z" fill="#00B754"/>
<path d="M100 104.722V15.2779C94.2291 10.1127 87.4525 6.04815 80 3.41411V116.586C87.4525 113.952 94.2291 109.887 100 104.722Z" fill="#297CE7"/>
<path d="M100 15.2779C112.275 26.2643 120 42.23 120 60C120 77.77 112.275 93.7357 100 104.722V15.2779Z" fill="#752ED1"/>
<path fill-rule="evenodd" clip-rule="evenodd" d="M28.7389 59.8478L28.7114 59.874L33.8505 78.8891L33.8874 78.8982L48.2366 82.4088C47.7669 83.3657 47.1569 84.2526 46.4248 85.0372C45.0725 86.4869 43.3043 87.5875 41.2383 88.1365C36.4194 89.4166 31.4892 87.2937 29.044 83.2534C28.5325 82.4085 28.1299 81.4797 27.8595 80.4806L27.9937 80.4449L28.0717 80.4243L30.9449 79.6611L30.9772 79.6523L25.8382 60.6372L25.806 60.6458L13.5095 63.9125C11.1302 64.5446 9.71825 66.9694 10.3558 69.3282L13.1861 79.8008C13.8236 82.1598 16.2692 83.5597 18.6485 82.9277L23.5471 81.6263C23.8139 82.6122 24.1719 83.5492 24.61 84.4312C27.7889 90.8308 35.1797 94.3285 42.3939 92.412C47.2083 91.1329 50.8749 87.7266 52.6405 83.4863L87.608 92.0414L87.6449 92.0505L68.6615 21.8086L68.634 21.8348L28.7389 59.8478ZM68.6759 17.6588L27.1852 57.192L12.731 61.0318C8.74705 62.0903 6.38282 66.1502 7.45031 70.1002L10.2806 80.5728C11.3481 84.5226 15.4431 86.8666 19.4269 85.8083L21.6569 85.2159C25.304 93.2055 34.3488 97.6366 43.1723 95.2926C48.0166 94.0055 51.8885 90.9149 54.2502 86.9517L89.7502 95.6371C91.5711 97.3205 94.1997 98.0635 96.7815 97.3777C100.765 96.3192 103.13 92.2594 102.062 88.3095L83.0339 17.9012C81.9663 13.9515 77.8714 11.6074 73.8876 12.6658C71.3054 13.3517 69.4039 15.2984 68.6759 17.6588ZM71.4026 20.4282C71.4277 20.606 71.4642 20.7842 71.5122 20.9622L90.5183 91.2871L90.5406 91.3703C90.5888 91.5482 90.6471 91.7206 90.7149 91.8871C91.5466 93.9288 93.8031 95.0814 96.0031 94.4971C98.3823 93.8649 99.7943 91.4402 99.1568 89.0814L80.1283 18.6731C79.4908 16.3142 77.0451 14.9143 74.666 15.5465C72.466 16.1308 71.0932 18.2477 71.4026 20.4282ZM49.4831 67.4649L59.3782 72.6885C59.7888 72.9052 60.2683 72.9594 60.7195 72.8395C61.1706 72.7197 61.5585 72.4351 61.8048 72.0438L67.74 62.6146C68.7395 61.032 69.0269 59.1077 68.5399 57.3054L68.4718 57.0535C67.6514 54.0178 64.7399 52.0172 61.5868 52.3195C59.5002 52.5202 57.6426 53.7071 56.5972 55.5023L56.2125 56.1631L55.546 55.7815C53.7354 54.7451 51.5282 54.638 49.6199 55.4988C46.7369 56.7998 45.2243 59.9758 46.0448 63.0114L46.1128 63.2634C46.5999 65.0657 47.8192 66.5895 49.4831 67.4649Z" fill="white"/>
<path d="M59.3782 72.6885L49.4831 67.4649C47.8192 66.5895 46.5999 65.0657 46.1128 63.2634L46.0448 63.0114C45.2243 59.9758 46.7369 56.7998 49.6199 55.4988C51.5282 54.638 53.7354 54.7451 55.546 55.7815L56.2125 56.1631L56.5972 55.5023C57.6426 53.7071 59.5002 52.5202 61.5868 52.3195C64.7399 52.0172 67.6514 54.0178 68.4718 57.0535L68.5399 57.3054C69.0269 59.1077 68.7395 61.032 67.74 62.6146L61.8048 72.0438C61.5585 72.4351 61.1706 72.7197 60.7195 72.8395C60.2683 72.9594 59.7888 72.9052 59.3782 72.6885Z" fill="white"/>
</svg>
