<svg width="120" height="120" viewBox="0 0 120 120" fill="none" xmlns="http://www.w3.org/2000/svg">
<path d="M104.615 0H15.3846C6.88792 0 0 6.88792 0 15.3846V104.615C0 113.112 6.88792 120 15.3846 120H104.615C113.112 120 120 113.112 120 104.615V15.3846C120 6.88792 113.112 0 104.615 0Z" fill="white"/>
<path d="M36.98 87.8292C33.9377 86.6654 31.4771 84.1126 30.5685 80.7302L33.5737 79.926L28.6202 61.4645L16.7363 64.6443C14.4429 65.258 13.0819 67.6122 13.6964 69.9023L16.4246 80.0702C17.0391 82.3603 19.3965 83.7195 21.6898 83.1058L26.4117 81.8425C27.9623 87.6163 32.7231 91.6745 38.2622 92.6146L36.98 87.8292Z" fill="#F2213A"/>
<path d="M40.9183 51.5785L31.3897 60.7232L36.3432 79.1849L49.1618 82.3438L40.9183 51.5785Z" fill="#FF6A26"/>
<path d="M49.5448 83.7726L50.8938 88.8075C50.9631 88.7425 51.0318 88.6768 51.0997 88.6103C49.3392 90.3288 47.1255 91.6326 44.5783 92.3142C42.4485 92.884 40.3025 92.9608 38.2622 92.6146L36.98 87.8292C38.9818 88.5951 41.2355 88.7595 43.4645 88.1631C46.0652 87.4671 48.1766 85.8575 49.5448 83.7726Z" fill="#FF6A26"/>
<path d="M54.0382 55.9154L50.43 42.4498L40.9183 51.5785L49.1618 82.3438L50.2103 82.6021C50.0135 83.006 49.7912 83.3971 49.5448 83.7726L50.8938 88.8075C52.4388 87.3566 53.6514 85.5928 54.4552 83.6482L61.9651 85.4988L58.2797 71.7451L51.4117 68.0932C49.8078 67.2434 48.6326 65.7638 48.1631 64.014L48.0975 63.7694C47.3066 60.8222 48.7646 57.7386 51.5435 56.4754C52.3392 56.1138 53.1889 55.9283 54.0382 55.9154Z" fill="#FF9D0A"/>
<path d="M75.2486 88.7723L68.6151 64.0158L63.2889 72.5389C63.0514 72.9188 62.6775 73.1951 62.2426 73.3115C61.8078 73.4278 61.3455 73.3752 60.9498 73.1648L58.2797 71.7451L61.9651 85.4988L75.2486 88.7723Z" fill="#00B754"/>
<path d="M60.2988 32.9786L50.43 42.4498L54.0382 55.9154C55.1522 55.8985 56.2655 56.1791 57.2558 56.75L57.8983 57.1205L58.2692 56.4788C59.2768 54.736 61.0674 53.5835 63.0788 53.3888C64.0508 53.2949 64.9991 53.4297 65.8652 53.7531L60.2988 32.9786Z" fill="#00B754"/>
<path d="M75.2486 88.7723L88.1965 91.9631L69.8982 23.7658L60.2988 32.9786L65.8652 53.7531C67.7069 54.4406 69.1772 55.9803 69.7151 57.9849L69.7808 58.2295C70.2503 59.9792 69.9732 61.8475 69.0098 63.3842L68.6151 64.0158L75.2486 88.7723Z" fill="#297CE7"/>
<path d="M99.2929 89.0805L80.9511 20.7218C80.3365 18.4315 77.9792 17.0725 75.6859 17.686C73.3925 18.2997 72.0314 20.6538 72.6458 22.9442L90.9877 91.3028C91.6023 93.5931 93.9595 94.9522 96.2529 94.3385C98.5465 93.7249 99.9074 91.3706 99.2929 89.0805Z" fill="#752ED1"/>
</svg>
