<svg width="272" height="54" viewBox="0 0 272 54" fill="none" xmlns="http://www.w3.org/2000/svg">
<path fill-rule="evenodd" clip-rule="evenodd" d="M271.906 45.9034L260.227 2.37419C259.836 0.915815 258.336 0.0503487 256.876 0.44112C255.415 0.831894 254.549 2.33092 254.94 3.7893L266.618 47.3184C267.009 48.7767 268.511 49.6421 269.971 49.2514C271.43 48.8608 272.297 47.3617 271.906 45.9034ZM217.407 33.691C217.016 32.2328 217.882 30.7337 219.342 30.3429L226.91 28.3181L230.063 40.074L228.149 40.5859C229.108 44.1571 232.784 46.2762 236.36 45.3192C238.314 44.7959 239.835 43.4627 240.655 41.778L231.826 39.6019L228.672 27.8461L253.19 4.31262L257.438 20.1478L260.593 31.9037L264.841 47.739L243.358 42.4443C242.275 45.0658 240.024 47.1714 237.07 47.9622C232.032 49.3104 226.853 46.3253 225.503 41.2941L222.496 42.0989C221.036 42.4895 219.535 41.6242 219.145 40.1655L217.407 33.691ZM241.42 32.5391L247.493 35.7687C247.745 35.9026 248.039 35.9362 248.316 35.8619C248.593 35.7879 248.83 35.612 248.982 35.3699L252.625 29.5406C253.238 28.562 253.415 27.3724 253.115 26.2582L253.075 26.1025C252.571 24.2256 250.783 22.9888 248.849 23.1757C247.568 23.2996 246.428 24.0335 245.786 25.1434L245.55 25.5519L245.141 25.316C244.029 24.6752 242.676 24.609 241.504 25.1411C239.734 25.9455 238.807 27.9091 239.31 29.7859L239.352 29.9416C239.651 31.0558 240.399 31.998 241.42 32.5391ZM14.6389 45.1296C11.5908 45.1296 8.9623 44.4901 6.75319 43.2112C4.57203 41.9321 2.89422 40.1668 1.71976 37.9148C0.573253 35.6348 0 33.0215 0 30.0743C0 27.0717 0.587236 24.4305 1.7617 22.1506C2.96413 19.8708 4.66992 18.1053 6.87903 16.8542C9.08813 15.5753 11.7167 14.9358 14.7647 14.9358C17.7847 14.9358 20.3854 15.5613 22.5666 16.8125C24.7477 18.0636 26.4256 19.8152 27.6 22.0672C28.8024 24.3192 29.4036 26.9465 29.4036 29.9493C29.4036 32.8964 28.8024 35.5237 27.6 37.8314C26.4256 40.1111 24.7337 41.9044 22.5246 43.2112C20.3435 44.4901 17.7149 45.1296 14.6389 45.1296ZM14.7228 39.5413C16.7362 39.5413 18.372 39.0825 19.6304 38.1651C20.8887 37.2476 21.7975 36.0659 22.3568 34.6202C22.9441 33.1742 23.2376 31.6591 23.2376 30.0743C23.2376 28.9067 23.07 27.7529 22.7344 26.613C22.4267 25.4731 21.9374 24.4443 21.2662 23.5269C20.5951 22.6094 19.7142 21.8865 18.6237 21.3583C17.5331 20.8022 16.2189 20.5242 14.6808 20.5242C12.6954 20.5242 11.0736 20.9829 9.81519 21.9004C8.55684 22.79 7.62005 23.9578 7.00486 25.4035C6.41763 26.8493 6.12401 28.3923 6.12401 30.0326C6.12401 31.673 6.41763 33.2159 7.00486 34.6619C7.62005 36.1076 8.55684 37.2893 9.81519 38.2068C11.1015 39.0962 12.7374 39.5413 14.7228 39.5413ZM43.4756 45.1296C40.5673 45.1296 38.1764 44.5875 36.303 43.5032C34.4574 42.4189 33.0873 40.8618 32.1923 38.8323C31.3254 36.8025 30.892 34.3699 30.892 31.534V15.2695H36.8902V31.826C36.8902 33.1606 37.0859 34.4254 37.4774 35.6211C37.8969 36.7888 38.5822 37.748 39.5328 38.4986C40.5116 39.2214 41.8398 39.5829 43.5175 39.5829C45.2232 39.5829 46.5377 39.2214 47.4604 38.4986C48.3832 37.748 49.0265 36.7748 49.3899 35.5794C49.7534 34.3836 49.9352 33.1325 49.9352 31.826V15.2695H55.9334V31.534C55.9334 34.3419 55.4998 36.7748 54.633 38.8323C53.7663 40.8618 52.41 42.4189 50.5643 43.5032C48.7188 44.5875 46.3557 45.1296 43.4756 45.1296ZM66.6422 20.8161V44.7959H72.6823V20.8161H81.7845V15.2695H57.582V20.8161H66.6422ZM88.3482 45.0879C87.3138 45.0879 86.2509 44.9765 85.1604 44.7542C84.0698 44.5318 83.0631 44.1564 82.1403 43.6283C81.2176 43.0721 80.4347 42.3355 79.7914 41.418C79.1481 40.4724 78.7287 39.3048 78.5331 37.9148H84.4892C84.657 38.4153 84.9507 38.846 85.3701 39.2077C85.8175 39.5689 86.3208 39.8332 86.8802 40C87.4674 40.1668 88.0547 40.2503 88.6419 40.2503C89.0334 40.2503 89.4247 40.2223 89.8164 40.1668C90.2079 40.1111 90.5714 40 90.9069 39.8332C91.2425 39.6663 91.5082 39.4579 91.7038 39.2077C91.8995 38.9294 91.9975 38.582 91.9975 38.1651C91.9975 37.72 91.8576 37.3727 91.5781 37.1225C91.2985 36.8722 90.9069 36.6774 90.4036 36.5385C89.9002 36.3718 89.3271 36.2186 88.6838 36.0799C87.5371 35.8296 86.307 35.5514 84.9926 35.2458C83.6783 34.9398 82.5457 34.4951 81.5951 33.9112C81.2035 33.633 80.8541 33.3273 80.5464 32.9938C80.2387 32.66 79.9871 32.2846 79.7914 31.8677C79.5958 31.4506 79.4418 31.0197 79.33 30.5748C79.2183 30.1021 79.1622 29.6018 79.1622 29.0734C79.1622 27.878 79.4139 26.8632 79.9173 26.0291C80.4484 25.1672 81.1478 24.4722 82.0145 23.9439C82.8812 23.4157 83.846 23.0403 84.9088 22.8178C85.9715 22.5677 87.062 22.4426 88.1804 22.4426C89.6905 22.4426 91.0888 22.6928 92.375 23.1932C93.6612 23.6659 94.7239 24.4166 95.5628 25.4452C96.4018 26.4461 96.9192 27.7529 97.1148 29.3654H91.4941C91.3823 28.7538 91.0048 28.2672 90.3616 27.9058C89.7184 27.5166 88.9213 27.3219 87.9707 27.3219C87.6352 27.3219 87.2717 27.3497 86.8802 27.4053C86.5167 27.4609 86.1812 27.5583 85.8734 27.6973C85.5657 27.8363 85.3141 28.0308 85.1185 28.2811C84.9228 28.5035 84.8248 28.8094 84.8248 29.1986C84.8248 29.5044 84.9088 29.7825 85.0765 30.0326C85.2722 30.2829 85.5379 30.4914 85.8734 30.6582C86.2369 30.8251 86.6705 30.978 87.1738 31.1169C88.1244 31.3394 89.0755 31.5479 90.0261 31.7425C91.0048 31.9094 91.8716 32.0901 92.6266 32.2846C93.5495 32.4793 94.3883 32.7989 95.1434 33.244C95.9262 33.6887 96.5555 34.3002 97.0309 35.079C97.5342 35.8296 97.786 36.8165 97.786 38.0399C97.786 39.4298 97.5064 40.5839 96.947 41.5014C96.3877 42.3909 95.6326 43.0998 94.682 43.6283C93.7592 44.1564 92.7384 44.5318 91.62 44.7542C90.5294 44.9765 89.4388 45.0879 88.3482 45.0879ZM104.702 22.8178H99.2071V53.0117H105.08V42.5857C105.527 43.0581 106.072 43.4892 106.715 43.8784C107.359 44.2398 108.1 44.5318 108.938 44.7542C109.777 44.9765 110.672 45.0879 111.623 45.0879C113.831 45.0879 115.678 44.6011 117.16 43.6283C118.642 42.6274 119.747 41.2789 120.473 39.5829C121 38.3817 121.342 37.0729 121.501 35.6559C121.682 37.2263 122.111 38.6325 122.787 39.8749C123.709 41.5431 125.01 42.8358 126.688 43.7533C128.366 44.6428 130.323 45.0879 132.56 45.0879C134.826 45.0879 136.768 44.6428 138.391 43.7533C140.04 42.8636 141.313 41.5848 142.208 39.9166C142.801 38.8251 143.204 37.6072 143.416 36.2626V44.7959H149.288V36.4551H152.434L157.97 44.7959H164.766L157.132 33.2856L164.178 22.8178H157.593L152.183 31.242H149.288V21.177L143.416 20.3179V31.5108C143.204 30.1432 142.801 28.9137 142.208 27.8224C141.285 26.1264 139.999 24.8058 138.349 23.8604C136.699 22.9152 134.755 22.4426 132.518 22.4426C130.338 22.4426 128.408 22.9013 126.73 23.8187C125.052 24.7363 123.738 26.0569 122.787 27.7807C122.125 28.9978 121.7 30.3868 121.513 31.9477C121.363 30.5375 121.03 29.232 120.515 28.0308C119.817 26.3071 118.753 24.9447 117.327 23.9439C115.901 22.943 114.098 22.4426 111.917 22.4426C110.518 22.4426 109.232 22.6928 108.058 23.1932C106.911 23.6937 105.891 24.4861 104.996 25.5704L104.702 22.8178ZM113.721 38.9574C112.965 39.5412 111.931 39.8332 110.616 39.8332C109.358 39.8332 108.309 39.5549 107.47 38.9991C106.659 38.4429 106.044 37.7063 105.625 36.7888C105.233 35.8713 105.038 34.8841 105.038 33.8278C105.038 32.7712 105.247 31.7843 105.667 30.8668C106.086 29.9493 106.701 29.2125 107.512 28.6565C108.323 28.0725 109.316 27.7807 110.49 27.7807C111.805 27.7807 112.839 28.0725 113.594 28.6565C114.377 29.2125 114.937 29.9632 115.272 30.9085C115.608 31.8538 115.776 32.8546 115.776 33.9112C115.776 34.8841 115.622 35.8296 115.314 36.7471C115.007 37.6366 114.475 38.3736 113.721 38.9574ZM132.477 39.7498C133.763 39.7498 134.798 39.4715 135.581 38.9157C136.364 38.3596 136.923 37.6366 137.259 36.7471C137.621 35.8296 137.803 34.8704 137.803 33.8695C137.803 32.8686 137.621 31.9094 137.259 30.9919C136.923 30.0743 136.364 29.3237 135.581 28.7399C134.826 28.1282 133.791 27.8224 132.477 27.8224C131.218 27.8224 130.198 28.1282 129.414 28.7399C128.631 29.3237 128.057 30.0743 127.695 30.9919C127.359 31.9094 127.191 32.8686 127.191 33.8695C127.191 34.8981 127.359 35.8573 127.695 36.7471C128.057 37.6366 128.631 38.3596 129.414 38.9157C130.198 39.4715 131.218 39.7498 132.477 39.7498ZM172.907 45.4137C170.586 45.4137 168.615 44.9549 166.993 44.0375C165.37 43.12 164.126 41.8271 163.26 40.159C162.393 38.4628 161.959 36.489 161.959 34.2371C161.959 31.9572 162.407 29.9693 163.302 28.2733C164.196 26.5496 165.454 25.2011 167.077 24.228C168.726 23.2549 170.67 22.7683 172.907 22.7683C174.585 22.7683 176.053 23.0464 177.312 23.6025C178.598 24.1585 179.674 24.9369 180.541 25.9378C181.436 26.9387 182.092 28.1064 182.513 29.441C182.96 30.7477 183.169 32.1656 183.141 33.6949C183.141 34.084 183.128 34.4592 183.099 34.8209C183.071 35.1823 183.016 35.5435 182.932 35.9052H167.79C167.873 36.7393 168.111 37.5036 168.503 38.1989C168.894 38.8939 169.439 39.4501 170.139 39.8671C170.865 40.2561 171.76 40.451 172.824 40.451C173.522 40.451 174.165 40.3812 174.752 40.2424C175.34 40.0756 175.843 39.8254 176.263 39.4918C176.682 39.1581 176.976 38.7688 177.143 38.3241H182.932C182.568 39.9642 181.883 41.3127 180.877 42.3693C179.898 43.4257 178.709 44.2043 177.312 44.7048C175.913 45.1772 174.445 45.4137 172.907 45.4137ZM167.915 31.8181H177.521C177.493 31.0675 177.297 30.3724 176.934 29.7329C176.599 29.0656 176.081 28.5374 175.382 28.1481C174.711 27.7312 173.844 27.5226 172.781 27.5226C171.718 27.5226 170.824 27.7312 170.097 28.1481C169.398 28.5652 168.867 29.1073 168.503 29.7746C168.167 30.4141 167.972 31.0953 167.915 31.8181ZM184.592 23.1437V45.1218H190.464V34.2788C190.464 33.1388 190.645 32.0962 191.009 31.1508C191.373 30.2055 191.932 29.4549 192.687 28.8989C193.442 28.3428 194.378 28.0647 195.497 28.0647C196.364 28.0647 197.063 28.2316 197.594 28.5652C198.126 28.8989 198.531 29.3437 198.811 29.8998C199.119 30.4558 199.329 31.0675 199.441 31.7347C199.552 32.402 199.608 33.0694 199.608 33.7366V45.1218H205.48V32.9859C205.48 31.0953 205.215 29.3854 204.683 27.8563C204.181 26.2993 203.328 25.062 202.125 24.1446C200.95 23.2271 199.3 22.7683 197.175 22.7683C196.504 22.7683 195.749 22.8517 194.911 23.0186C194.099 23.1854 193.288 23.4913 192.478 23.936C191.695 24.3531 190.995 24.9369 190.381 25.6877L190.087 23.1437H184.592Z" fill="black"/>
</svg>
