<svg width="120" height="109" viewBox="0 0 120 109" fill="none" xmlns="http://www.w3.org/2000/svg">
<path fill-rule="evenodd" clip-rule="evenodd" d="M94.1684 5.10019L119.794 100.605C120.652 103.805 118.751 107.094 115.547 107.951C112.343 108.808 109.049 106.909 108.191 103.71L82.5651 8.20502C81.7067 5.00525 83.6081 1.71631 86.8123 0.858943C90.0164 0.00157225 93.3098 1.90045 94.1684 5.10019ZM4.45321 66.4648C1.24908 67.3221 -0.652397 70.6112 0.206149 73.8107L4.01774 88.0163C4.87628 91.2162 8.16974 93.115 11.3739 92.2578L17.9708 90.4925C20.9349 101.531 32.2972 108.08 43.3517 105.123C49.8353 103.388 54.7731 98.767 57.1507 93.0153L104.291 104.632L94.9689 69.8892L88.0483 44.0962L78.7262 9.35318L24.9256 60.9868L31.8462 86.7796L51.22 91.5538C49.4192 95.2503 46.0837 98.1757 41.7956 99.3232C33.9486 101.423 25.8829 96.7736 23.7783 88.9385L27.9769 87.815L21.0561 62.0222L4.45321 66.4648ZM66.2244 78.3688L52.8986 71.2834C50.658 70.0961 49.0159 68.0289 48.36 65.5842L48.2682 65.2426C47.1634 61.1249 49.2002 56.8168 53.0828 55.0519C55.6528 53.8843 58.6252 54.0297 61.0635 55.4356L61.9611 55.9531L62.4794 55.0567C63.8871 52.6218 66.3886 51.0117 69.1987 50.7396C73.4448 50.3294 77.3657 53.0432 78.4706 57.1611L78.5621 57.5025C79.2182 59.9473 78.831 62.5575 77.4851 64.7044L69.4924 77.4944C69.1606 78.0252 68.6382 78.4112 68.0306 78.5739C67.4231 78.7364 66.7774 78.6629 66.2244 78.3688Z" fill="black"/>
</svg>
