<svg width="120" height="108" viewBox="0 0 120 108" fill="none" xmlns="http://www.w3.org/2000/svg">
<path d="M44.4047 101.059C35.7397 103.364 26.8725 99.4692 22.5821 92.113L24.7609 100.339C30.2507 104.752 37.6878 106.624 45.036 104.789L44.0709 101.145C44.1822 101.117 44.2934 101.089 44.4047 101.059Z" fill="#FF6A26"/>
<path d="M62.949 91.1602L57.331 89.7838C55.1038 95.1404 50.4783 99.4434 44.4047 101.059C44.2934 101.089 44.1822 101.117 44.0709 101.145L45.036 104.789C45.153 104.759 45.2701 104.729 45.3869 104.698C51.4979 103.072 56.3822 99.1681 59.3615 94.1615L64.048 95.3098L62.949 91.1602Z" fill="#FF9D0A"/>
<path d="M48.0235 34.8097L30.8427 51.2026L31.9475 55.3734L49.1283 38.9804L48.0235 34.8097Z" fill="#FF9D0A"/>
<path d="M42.6383 95.7365C42.7413 95.7117 42.8442 95.6855 42.9471 95.6581C45.5533 94.9648 47.7839 93.5745 49.4899 91.7431C50.4133 90.752 51.1829 89.6317 51.7754 88.4228L39.9326 85.5215L42.6383 95.7365Z" fill="#FF9D0A"/>
<path d="M30.8427 51.2026L25.2191 56.5681L13.9606 59.563L14.9256 63.2064L23.479 60.931L23.5196 60.9202L30.0026 84.9407L26.2566 85.9374L26.2388 85.9421L26.0696 85.9872C26.4107 87.2492 26.9186 88.4224 27.5637 89.4896C30.5963 94.5071 36.6582 97.1839 42.6383 95.7365L39.9326 85.5215L33.6272 83.9767L27.1443 59.956L31.9475 55.3734L30.8427 51.2026Z" fill="#FF6A26"/>
<path d="M13.9606 59.563L6.98491 61.4186C1.95919 62.7557 -1.02329 67.8844 0.323346 72.874L3.89383 86.1035C5.24046 91.0931 10.4063 94.0541 15.432 92.7172L18.2451 91.9687C19.7617 95.2958 22.0183 98.1345 24.7609 100.339L22.5821 92.113C22.3664 91.7432 22.1622 91.3646 21.9703 90.9776C21.4176 89.8634 20.9659 88.6797 20.6295 87.4343L14.4499 89.0783C11.4484 89.8767 8.36331 88.1082 7.55908 85.1283L3.9886 71.8988C3.18437 68.9191 4.96557 65.8561 7.967 65.0575L14.9256 63.2064L13.9606 59.563Z" fill="#F2213A"/>
<path d="M65.8306 76.1438L53.3478 69.5452C51.249 68.4393 49.7106 66.5143 49.0961 64.2377L49.0104 63.9194C47.9755 60.0847 49.8836 56.0727 53.5204 54.4291C55.9277 53.3416 58.7121 53.477 60.9964 54.7863L61.8371 55.2684L62.3225 54.4335C63.6411 52.1659 65.9844 50.6664 68.6167 50.4129C72.5943 50.0311 76.2672 52.5584 77.3021 56.3933L77.3881 56.7113C78.0024 58.988 77.64 61.4188 76.379 63.4181L68.8918 75.3295C68.5811 75.8237 68.0916 76.1831 67.5226 76.3346C66.9535 76.486 66.3486 76.4175 65.8306 76.1438Z" fill="#FF9D0A"/>
<path d="M60.9469 22.4789L48.0235 34.8097L49.1283 38.9804L62.0515 26.6498L60.9469 22.4789Z" fill="#00B754"/>
<path d="M80.2619 95.4019L62.949 91.1602L64.048 95.3098L81.3609 99.5513L80.2619 95.4019Z" fill="#00B754"/>
<path d="M100.575 104.259L81.3609 99.5513L80.2619 95.4019L99.4765 100.109L100.575 104.259Z" fill="#297CE7"/>
<path d="M75.2898 8.79387L60.9469 22.4789L62.0515 26.6498L76.3946 12.9648L75.2898 8.79387Z" fill="#297CE7"/>
<path fill-rule="evenodd" clip-rule="evenodd" d="M100.575 104.259L104.145 105.133C106.442 107.26 109.758 108.199 113.015 107.332C118.041 105.995 121.023 100.866 119.677 95.8768L95.6722 6.93464C94.3255 1.94505 89.1598 -1.016 84.1341 0.320964C80.8768 1.18744 78.4779 3.64658 77.5595 6.62831L75.2898 8.79387L76.3946 12.9648L77.5069 11.9035L77.5415 11.8704L101.489 100.602L101.443 100.591L99.4765 100.109L100.575 104.259ZM81.1376 10.8011C81.0772 10.5765 81.0312 10.3513 80.9994 10.1267C80.609 7.37224 82.3409 4.69812 85.1162 3.95986C88.1176 3.16141 91.2026 4.9298 92.0069 7.90969L116.011 96.8518C116.816 99.8317 115.034 102.894 112.033 103.693C109.258 104.431 106.411 102.975 105.362 100.396C105.276 100.186 105.203 99.9679 105.142 99.7433L81.1661 10.9062L81.1376 10.8011Z" fill="#752ED1"/>
<path d="M65.8306 76.1438L53.3478 69.5452C51.249 68.4393 49.7106 66.5143 49.0961 64.2377L49.0104 63.9194C47.9755 60.0847 49.8836 56.0727 53.5204 54.4291C55.9277 53.3416 58.7121 53.477 60.9964 54.7863L61.8371 55.2684L62.3225 54.4335C63.6411 52.1659 65.9844 50.6664 68.6167 50.4129C72.5943 50.0311 76.2672 52.5584 77.3021 56.3933L77.3881 56.7113C78.0024 58.988 77.64 61.4188 76.379 63.4181L68.8918 75.3295C68.5811 75.8237 68.0916 76.1831 67.5226 76.3346C66.9535 76.486 66.3486 76.4175 65.8306 76.1438Z" fill="#752ED1"/>
</svg>
