<svg width="120" height="108" viewBox="0 0 120 108" fill="none" xmlns="http://www.w3.org/2000/svg">
<path fill-rule="evenodd" clip-rule="evenodd" d="M27.1791 59.9231L27.1443 59.9561L28.1264 63.595L33.6273 83.9767L33.6739 83.9882L47.9749 87.4918L51.7755 88.4229C51.1829 89.6316 50.4134 90.7521 49.4898 91.7432C47.7838 93.5745 45.5534 94.9649 42.947 95.6583C36.868 97.2754 30.6485 94.5936 27.5638 89.4898C26.9187 88.4226 26.4107 87.2492 26.0697 85.9871L26.2389 85.9422L26.2568 85.9374L26.3373 85.9159L29.7348 85.012L29.962 84.9518L30.0026 84.9408L29.0205 81.3019L24.5019 64.5592L23.5198 60.9202L23.4791 60.9312L19.8545 61.8954L7.96699 65.0578C4.96555 65.8562 3.18436 68.9192 3.9886 71.899L7.55907 85.1283C8.3633 88.1083 11.4484 89.8766 14.4499 89.0784L16.9643 88.4094L20.6295 87.4343C20.966 88.6796 21.4177 89.8636 21.9705 90.9777C25.9806 99.0619 35.3042 103.48 44.4048 101.059C50.4783 99.4436 55.1036 95.1405 57.3309 89.7839L97.2827 99.5719L101.443 100.591L101.489 100.603L100.368 96.4475L92.7569 68.2468L87.256 47.8651L86.2739 44.2262L85.2918 40.5872L78.663 16.0255L77.5416 11.8704L77.5068 11.9035L74.4175 14.8511L32.8122 54.5481L27.1791 59.9231ZM77.5595 6.62832L74.9122 9.15417L25.2191 56.568L22.5376 57.2813L6.9849 61.4187C1.95919 62.7557 -1.02329 67.8845 0.323346 72.8741L3.89382 86.1036C5.24046 91.0931 10.4063 94.0543 15.432 92.7172L18.2451 91.9688C22.8458 102.062 34.2559 107.659 45.3868 104.698C51.4979 103.072 56.3821 99.1681 59.3615 94.1617L100.58 104.26L104.145 105.133C106.442 107.26 109.758 108.198 113.015 107.332C118.041 105.995 121.023 100.866 119.677 95.8768L95.6722 6.93465C94.3256 1.94506 89.1598 -1.016 84.134 0.320963C80.8768 1.18744 78.4779 3.64659 77.5595 6.62832ZM80.9994 10.1267C81.0312 10.3513 81.077 10.5765 81.1377 10.8012L81.166 10.9062L88.9164 39.6231L89.8986 43.262L90.8807 46.9009L96.3814 67.2824L105.114 99.6383L105.142 99.7434C105.203 99.9679 105.276 100.186 105.362 100.396C106.411 102.975 109.258 104.431 112.033 103.693C115.034 102.895 116.816 99.8316 116.011 96.8519L92.0069 7.90969C91.2026 4.9298 88.1176 3.16142 85.1162 3.95988C82.341 4.69812 80.609 7.37226 80.9994 10.1267ZM53.3478 69.5452L65.8306 76.1439C66.3487 76.4176 66.9534 76.4861 67.5226 76.3348C68.0918 76.1832 68.581 75.8237 68.8919 75.3296L76.379 63.4183C77.6399 61.4189 78.0026 58.988 77.388 56.7114L77.3023 56.3932C76.2673 52.5584 72.5943 50.0311 68.6168 50.413C65.9845 50.6664 63.6412 52.1659 62.3225 54.4335L61.8371 55.2683L60.9964 54.7864C58.7122 53.4771 55.9277 53.3417 53.5204 54.4291C49.8835 56.0727 47.9753 60.0848 49.0104 63.9194L49.0962 64.2376C49.7106 66.5144 51.2489 68.4394 53.3478 69.5452Z" fill="black"/>
</svg>
