<svg width="272" height="53" viewBox="0 0 272 53" fill="none" xmlns="http://www.w3.org/2000/svg">
<path d="M19.3779 41.687C15.3431 41.687 11.8637 40.8222 8.93935 39.0924C6.05211 37.3628 3.83115 34.9751 2.27649 31.9294C0.758828 28.846 0 25.3115 0 21.3257C0 17.2647 0.777338 13.6926 2.33201 10.6092C3.92369 7.52586 6.18168 5.13815 9.10593 3.44608C12.0302 1.7164 15.5097 0.851562 19.5444 0.851562C23.5422 0.851562 26.9847 1.69759 29.8719 3.38967C32.7591 5.08174 34.9801 7.45065 36.5348 10.4964C38.1265 13.5421 38.9223 17.0955 38.9223 21.1565C38.9223 25.1423 38.1265 28.6957 36.5348 31.8166C34.9801 34.9 32.7407 37.3253 29.8164 39.0924C26.9291 40.8222 23.4497 41.687 19.3779 41.687ZM19.4889 34.1291C22.154 34.1291 24.3195 33.5086 25.9853 32.2678C27.6509 31.0269 28.854 29.4289 29.5942 27.4736C30.3716 25.5183 30.7603 23.469 30.7603 21.3257C30.7603 19.7464 30.5382 18.1859 30.094 16.6442C29.6868 15.1027 29.039 13.7113 28.1507 12.4704C27.2623 11.2296 26.0963 10.252 24.6527 9.53754C23.209 8.78554 21.4693 8.40949 19.4334 8.40949C16.8052 8.40949 14.6583 9.02992 12.9927 10.2708C11.3269 11.474 10.0868 13.0533 9.2725 15.0086C8.49516 16.9639 8.1065 19.0508 8.1065 21.2693C8.1065 23.4878 8.49516 25.5747 9.2725 27.53C10.0868 29.4853 11.3269 31.0833 12.9927 32.3242C14.6953 33.5275 16.8607 34.1291 19.4889 34.1291Z" fill="black"/>
<path d="M57.5497 41.687C53.7 41.687 50.5351 40.9538 48.0551 39.4873C45.6121 38.0209 43.7985 35.9151 42.6137 33.1702C41.4663 30.4254 40.8925 27.1351 40.8925 23.2998V1.30279H48.8325V23.6946C48.8325 25.4995 49.0914 27.2103 49.6098 28.8273C50.165 30.4065 51.0721 31.7038 52.3305 32.719C53.6262 33.6967 55.3843 34.1855 57.6052 34.1855C59.8631 34.1855 61.6029 33.6967 62.8245 32.719C64.0461 31.7038 64.8976 30.3877 65.3787 28.7709C65.8597 27.1539 66.1004 25.4619 66.1004 23.6946V1.30279H74.0404V23.2998C74.0404 27.0976 73.4664 30.3877 72.3191 33.1702C71.1718 35.9151 69.3764 38.0209 66.9333 39.4873C64.4902 40.9538 61.3623 41.687 57.5497 41.687Z" fill="black"/>
<path d="M88.2159 41.2358V8.8043H76.2227V1.30279H108.26V8.8043H96.2113V41.2358H88.2159Z" fill="black"/>
<path d="M116.949 41.6306C115.58 41.6306 114.173 41.4802 112.729 41.1794C111.285 40.8786 109.953 40.371 108.731 39.6565C107.51 38.9045 106.473 37.9081 105.622 36.6672C104.77 35.3887 104.215 33.8094 103.956 31.9294H111.84C112.063 32.6062 112.451 33.1891 113.006 33.6778C113.598 34.1667 114.265 34.5239 115.006 34.7495C115.782 34.9751 116.56 35.088 117.337 35.088C117.855 35.088 118.374 35.0503 118.892 34.9751C119.411 34.9 119.891 34.7495 120.335 34.5239C120.779 34.2983 121.132 34.0163 121.391 33.6778C121.65 33.3019 121.78 32.8318 121.78 32.2677C121.78 31.6662 121.594 31.1962 121.224 30.8577C120.854 30.5193 120.335 30.2562 119.669 30.0681C119.004 29.8424 118.244 29.6357 117.393 29.4476C115.875 29.1092 114.247 28.7332 112.507 28.3196C110.767 27.906 109.268 27.3044 108.009 26.5147C107.491 26.1387 107.029 25.725 106.621 25.2739C106.214 24.8227 105.881 24.315 105.622 23.751C105.363 23.1869 105.159 22.6041 105.011 22.0026C104.863 21.3633 104.789 20.6865 104.789 19.972C104.789 18.3551 105.122 16.9827 105.788 15.8546C106.492 14.689 107.417 13.749 108.565 13.0345C109.712 12.3201 110.989 11.8124 112.396 11.5117C113.803 11.1732 115.246 11.004 116.727 11.004C118.726 11.004 120.576 11.3424 122.279 12.0193C123.982 12.6585 125.388 13.6738 126.499 15.065C127.609 16.4186 128.294 18.1859 128.553 20.3668H121.113C120.965 19.5396 120.465 18.8815 119.614 18.3928C118.763 17.8664 117.707 17.6031 116.449 17.6031C116.005 17.6031 115.523 17.6408 115.006 17.7159C114.524 17.7911 114.08 17.9228 113.673 18.1108C113.266 18.2987 112.933 18.562 112.673 18.9003C112.414 19.2012 112.285 19.6148 112.285 20.1412C112.285 20.5548 112.396 20.9309 112.618 21.2693C112.877 21.6077 113.229 21.8898 113.673 22.1154C114.153 22.3409 114.728 22.5477 115.394 22.7357C116.652 23.0366 117.912 23.3186 119.17 23.5818C120.465 23.8074 121.612 24.0518 122.612 24.315C123.834 24.5783 124.944 25.0106 125.944 25.6122C126.979 26.2139 127.812 27.0411 128.442 28.094C129.109 29.1092 129.441 30.4441 129.441 32.0985C129.441 33.9786 129.072 35.5391 128.331 36.78C127.591 37.9832 126.592 38.9421 125.332 39.6565C124.112 40.371 122.76 40.8786 121.279 41.1794C119.836 41.4802 118.392 41.6306 116.949 41.6306Z" fill="black"/>
<path d="M131.323 52.3473V11.5117H138.596L138.985 15.2342C140.169 13.7677 141.52 12.696 143.038 12.0193C144.594 11.3424 146.296 11.004 148.146 11.004C151.034 11.004 153.422 11.6809 155.309 13.0345C157.197 14.3882 158.604 16.2306 159.529 18.562C160.492 20.8557 160.972 23.4314 160.972 26.2891C160.972 29.222 160.473 31.8541 159.474 34.1855C158.511 36.4792 157.049 38.3029 155.087 39.6565C153.126 40.9726 150.682 41.6306 147.757 41.6306C146.499 41.6306 145.315 41.4802 144.205 41.1794C143.094 40.8786 142.114 40.4838 141.261 39.9949C140.41 39.4685 139.688 38.8857 139.097 38.2465V52.3473H131.323ZM146.426 34.5239C148.166 34.5239 149.534 34.1291 150.534 33.3394C151.534 32.5497 152.237 31.5533 152.644 30.3501C153.051 29.1092 153.254 27.8308 153.254 26.5147C153.254 25.0859 153.033 23.7322 152.589 22.4537C152.144 21.1753 151.404 20.1601 150.367 19.408C149.368 18.6184 147.998 18.2236 146.259 18.2236C144.704 18.2236 143.39 18.6184 142.317 19.408C141.243 20.1601 140.428 21.1565 139.873 22.3973C139.318 23.6382 139.04 24.9731 139.04 26.4019C139.04 27.8308 139.3 29.1656 139.818 30.4065C140.373 31.6474 141.188 32.6438 142.261 33.3958C143.372 34.1478 144.76 34.5239 146.426 34.5239Z" fill="black"/>
<path d="M175.474 41.6306C172.512 41.6306 169.92 41.029 167.7 39.8257C165.479 38.5849 163.758 36.8364 162.536 34.5803C161.315 32.2866 160.703 29.5793 160.703 26.4583C160.703 23.2622 161.315 20.5173 162.536 18.2236C163.795 15.8922 165.535 14.1062 167.756 12.8653C169.977 11.6245 172.53 11.004 175.417 11.004C178.379 11.004 180.951 11.6432 183.135 12.9217C185.319 14.2002 187.022 15.9863 188.243 18.28C189.465 20.5737 190.076 23.3186 190.076 26.5147C190.076 29.6357 189.465 32.343 188.243 34.6367C187.059 36.8928 185.374 38.6224 183.191 39.8257C181.044 41.029 178.471 41.6306 175.474 41.6306ZM175.362 34.4111C177.065 34.4111 178.434 34.035 179.471 33.283C180.507 32.531 181.248 31.5533 181.692 30.3501C182.173 29.1092 182.414 27.812 182.414 26.4583C182.414 25.1047 182.173 23.8074 181.692 22.5665C181.248 21.3257 180.507 20.3104 179.471 19.5208C178.471 18.6936 177.101 18.28 175.362 18.28C173.697 18.28 172.345 18.6936 171.308 19.5208C170.272 20.3104 169.513 21.3257 169.032 22.5665C168.589 23.8074 168.366 25.1047 168.366 26.4583C168.366 27.8496 168.589 29.1468 169.032 30.3501C169.513 31.5533 170.272 32.531 171.308 33.283C172.345 34.035 173.697 34.4111 175.362 34.4111Z" fill="black"/>
<path d="M189.843 41.2358V8.13065L197.616 9.29253V22.9049H201.448L208.61 11.5117H217.327L208 25.6686L218.105 41.2358H209.11L201.78 29.9553H197.616V41.2358H189.843Z" fill="black"/>
<path d="M228.882 42.0713C225.808 42.0713 223.199 41.4508 221.052 40.21C218.905 38.9691 217.258 37.2206 216.111 34.9645C214.962 32.6708 214.389 30.0011 214.389 26.9554C214.389 23.872 214.982 21.1835 216.166 18.8898C217.35 16.5586 219.016 14.7349 221.164 13.4188C223.347 12.1027 225.92 11.4446 228.882 11.4446C231.102 11.4446 233.046 11.8207 234.711 12.5727C236.414 13.3247 237.839 14.3776 238.987 15.7313C240.17 17.0849 241.041 18.6642 241.596 20.469C242.188 22.2363 242.466 24.1541 242.429 26.2222C242.429 26.7486 242.411 27.2562 242.373 27.745C242.336 28.2338 242.263 28.7226 242.151 29.2115H222.107C222.218 30.3395 222.532 31.3736 223.051 32.3136C223.569 33.2537 224.291 34.0056 225.217 34.5697C226.179 35.0962 227.364 35.3593 228.77 35.3593C229.695 35.3593 230.547 35.2653 231.324 35.0773C232.102 34.8517 232.768 34.5133 233.323 34.062C233.878 33.6108 234.267 33.0845 234.489 32.4828H242.151C241.67 34.7014 240.763 36.5251 239.431 37.9538C238.135 39.3827 236.561 40.4355 234.711 41.1124C232.86 41.7517 230.917 42.0713 228.882 42.0713ZM222.274 23.684H234.989C234.952 22.6688 234.693 21.7288 234.211 20.8638C233.767 19.9615 233.082 19.247 232.157 18.7206C231.269 18.1565 230.12 17.8745 228.714 17.8745C227.308 17.8745 226.124 18.1565 225.161 18.7206C224.236 19.2846 223.532 20.0179 223.051 20.9202C222.607 21.7852 222.347 22.7064 222.274 23.684Z" fill="black"/>
<path d="M244.348 41.6764V11.9523H251.622L252.011 15.3928C252.825 14.3776 253.75 13.588 254.787 13.024C255.86 12.4223 256.934 12.0087 258.007 11.7831C259.117 11.5574 260.118 11.4446 261.006 11.4446C263.819 11.4446 266.002 12.0651 267.558 13.306C269.149 14.5468 270.278 16.2201 270.944 18.3258C271.647 20.3938 272 22.7064 272 25.2633V41.6764H264.227V26.2786C264.227 25.3761 264.152 24.4736 264.004 23.5713C263.856 22.6688 263.578 21.8416 263.171 21.0895C262.801 20.3374 262.264 19.7359 261.561 19.2846C260.857 18.8334 259.932 18.6078 258.785 18.6078C257.304 18.6078 256.064 18.9838 255.065 19.7359C254.065 20.4879 253.324 21.5032 252.844 22.7816C252.362 24.06 252.122 25.4701 252.122 27.0117V41.6764H244.348Z" fill="black"/>
</svg>
