<svg width="272" height="133" viewBox="0 0 272 133" fill="none" xmlns="http://www.w3.org/2000/svg">
<path d="M93.3977 81.1577C91.3123 86.4432 87.9607 90.8666 83.3056 94.3903C78.6507 97.9141 72.5061 99.6758 64.9092 99.6758C57.4984 99.6758 51.4655 98.0264 46.7734 94.6526C42.0439 91.3165 38.5806 86.9681 36.3835 81.6826C34.1862 76.4344 33.0691 70.9615 33.0691 65.3386C33.0691 59.6781 34.149 54.2426 36.3089 48.957C38.4316 43.6715 41.8577 39.3231 46.4755 35.9118C51.1304 32.5005 57.2005 30.7761 64.7229 30.7761C70.6814 30.7761 75.6715 31.8633 79.7306 34.0375C83.7899 36.1742 87.0297 38.9857 89.4875 42.4718C91.9081 45.9581 93.6956 49.7068 94.85 53.7178C95.9672 57.7287 96.5258 61.6649 96.5258 65.4884C96.5258 70.6616 95.4832 75.8721 93.3977 81.1577ZM113.172 106.086C109.187 97.1643 107.176 86.1058 107.176 72.8732V13.6075C104.57 11.4708 101.739 9.59648 98.6858 7.94708C89.0406 2.66152 77.8314 0 65.0954 0C52.2103 0 40.8895 2.69901 31.1326 8.09703C21.3385 13.495 13.7043 21.1048 8.23002 30.8886C2.75575 40.6351 0 52.1808 0 65.4884C0 78.4586 2.68127 89.817 7.96934 99.601C13.2574 109.385 20.7426 116.957 30.3878 122.355C40.0701 127.753 51.3166 130.452 64.2017 130.452C77.3101 130.452 88.7799 127.678 98.6114 122.093C104.83 118.569 110.156 114.183 114.587 108.935C114.066 107.998 113.619 107.061 113.172 106.086Z" fill="#F2213A"/>
<path d="M185.827 34.3749V74.86C185.827 79.3209 185.269 83.6693 184.114 87.9052C182.996 92.1786 180.837 95.7023 177.598 98.4388C174.395 101.213 169.628 102.6 163.296 102.6C157.114 102.6 152.274 101.25 148.811 98.5513C145.385 95.8148 142.964 92.366 141.586 88.0926C140.208 83.8567 139.538 79.4333 139.538 74.86V4.16099H107.176V13.6075C112.911 18.1434 117.641 23.7288 121.402 30.3264C126.876 39.9978 129.595 51.3937 129.595 64.6263C129.595 77.559 126.914 88.9924 121.477 98.8887C119.466 102.525 117.194 105.861 114.587 108.935C118.535 116.47 124.195 122.243 131.569 126.254C139.873 130.752 150.3 133.001 162.962 133.001C175.698 133.001 186.125 130.714 194.243 126.141C197.036 124.567 199.607 122.73 201.914 120.593V34.3749H185.827Z" fill="#00B754"/>
<path d="M129.595 64.6263C129.595 77.559 126.914 88.9924 121.477 98.8887C119.466 102.525 117.194 105.861 114.587 108.935C114.066 107.998 113.619 107.061 113.172 106.086C109.187 97.1643 107.176 86.1058 107.176 72.8732V13.6075C112.911 18.1434 117.641 23.7288 121.402 30.3264C126.876 39.9978 129.595 51.3937 129.595 64.6263Z" fill="#FF9D0A"/>
<path d="M164.378 34.373H185.827V4.15914H164.378V34.373ZM218.189 4.15914V72.8714C218.189 85.954 216.215 96.975 212.267 105.897C209.736 111.745 206.272 116.655 201.914 120.591V131.537H234.276V34.373H272V4.15914H218.189Z" fill="#752ED1"/>
<path d="M218.189 4.16099V72.8732C218.189 85.956 216.215 96.9769 212.267 105.899C209.736 111.746 206.272 116.657 201.914 120.593V34.3749H185.827V4.16099H218.189Z" fill="#297CE7"/>
</svg>
