<svg width="272" height="65" viewBox="0 0 272 65" fill="none" xmlns="http://www.w3.org/2000/svg">
<path d="M125.868 54.9553C124.575 54.9553 123.249 54.8157 121.886 54.5381C120.521 54.2605 119.263 53.7828 118.108 53.1065C116.956 52.4286 115.978 51.5083 115.174 50.3443C114.367 49.1817 113.843 47.7317 113.6 45.9956H121.045C121.256 46.6214 121.632 47.1597 122.174 47.6105C122.715 48.0614 123.342 48.3912 124.06 48.5998C124.776 48.8083 125.502 48.9126 126.236 48.9126C126.727 48.9126 127.214 48.8789 127.704 48.8083C128.194 48.7376 128.648 48.5998 129.067 48.3912C129.487 48.1826 129.82 47.9134 130.062 47.5853C130.308 47.2539 130.43 46.8283 130.43 46.3068C130.43 45.7534 130.256 45.3177 129.906 45.0048C129.558 44.6935 129.067 44.4412 128.439 44.2511C127.81 44.0593 127.093 43.8777 126.289 43.7044C124.855 43.3898 123.317 43.0449 121.675 42.6613C120.032 42.2794 118.615 41.7244 117.427 40.9942C116.939 40.6477 116.5 40.2658 116.115 39.8486C115.733 39.4314 115.416 38.962 115.174 38.4406C114.928 37.9208 114.735 37.374 114.595 36.8004C114.456 36.2284 114.387 35.611 114.387 34.9516C114.387 33.4594 114.708 32.1809 115.357 31.1245C116.003 30.0646 116.867 29.2033 117.951 28.5438C119.035 27.8843 120.24 27.4083 121.57 27.1105C122.899 26.8162 124.262 26.6681 125.66 26.6681C127.548 26.6681 129.296 26.9726 130.904 27.5799C132.509 28.1871 133.838 29.1276 134.887 30.3926C135.937 31.6628 136.584 33.303 136.829 35.3166H129.802C129.661 34.5528 129.19 33.9371 128.386 33.4661C127.582 32.9968 126.585 32.7647 125.398 32.7647C124.98 32.7647 124.532 32.7983 124.06 32.869C123.588 32.9379 123.159 33.059 122.775 33.2323C122.391 33.4073 122.075 33.6411 121.832 33.9371C121.587 34.2316 121.464 34.6218 121.464 35.108C121.464 35.4899 121.578 35.8381 121.806 36.1494C122.031 36.464 122.365 36.7213 122.803 36.9316C123.237 37.1385 123.771 37.3303 124.401 37.5035C125.589 37.7811 126.787 38.0335 127.994 38.2589C129.199 38.486 130.274 38.7199 131.217 38.962C132.372 39.206 133.428 39.6064 134.39 40.1598C135.351 40.7167 136.138 41.472 136.749 42.4275C137.359 43.3813 137.667 44.6246 137.667 46.152C137.667 47.8881 137.317 49.3214 136.618 50.4485C135.917 51.579 134.983 52.4739 133.813 53.1317C132.639 53.7912 131.367 54.2605 129.987 54.5381C128.603 54.8157 127.231 54.9553 125.868 54.9553Z" fill="black"/>
<path d="M152.295 48.3906C153.937 48.3906 155.232 48.0256 156.176 47.2972C157.118 46.567 157.782 45.6385 158.168 44.5114C158.552 43.3826 158.743 42.21 158.743 40.9954C158.743 39.6748 158.535 38.4233 158.114 37.244C157.696 36.0631 157.005 35.1176 156.044 34.4043C155.083 33.6927 153.781 33.3361 152.138 33.3361C150.669 33.3361 149.429 33.6927 148.415 34.4043C147.401 35.1176 146.632 36.0462 146.107 37.1919C145.583 38.3374 145.321 39.5705 145.321 40.8911C145.321 42.21 145.574 43.4431 146.082 44.5887C146.587 45.7344 147.357 46.6546 148.387 47.3494C149.42 48.0457 150.721 48.3906 152.295 48.3906ZM138.034 64.8516V27.137H144.901L145.269 30.5738C146.386 29.2196 147.671 28.232 149.124 27.6063C150.572 26.9822 152.172 26.6676 153.92 26.6676C156.646 26.6676 158.902 27.2934 160.686 28.5434C162.467 29.7949 163.805 31.4889 164.697 33.6221C165.586 35.7602 166.032 38.1457 166.032 40.7851C166.032 43.4935 165.569 45.9177 164.644 48.0542C163.717 50.1872 162.327 51.8729 160.474 53.1077C158.622 54.3391 156.314 54.9548 153.552 54.9548C152.366 54.9548 151.246 54.8152 150.196 54.5376C149.15 54.26 148.222 53.8865 147.419 53.4189C146.615 52.9496 145.933 52.4196 145.374 51.8291V64.8516H138.034Z" fill="black"/>
<path d="M179.612 48.2869C181.221 48.2869 182.514 47.942 183.493 47.2455C184.47 46.5507 185.178 45.6389 185.617 44.5118C186.053 43.3813 186.272 42.192 186.272 40.942C186.272 39.6922 186.053 38.4944 185.617 37.3471C185.178 36.2031 184.48 35.2544 183.518 34.5092C182.557 33.7622 181.255 33.3904 179.612 33.3904C178.039 33.3904 176.764 33.7622 175.786 34.5092C174.805 35.2544 174.099 36.2031 173.662 37.3471C173.224 38.4944 173.006 39.6922 173.006 40.942C173.006 42.2273 173.224 43.4268 173.662 44.537C174.099 45.6474 174.805 46.5507 175.786 47.2455C176.764 47.942 178.039 48.2869 179.612 48.2869ZM179.718 54.9553C176.92 54.9553 174.475 54.3917 172.377 53.2612C170.28 52.1341 168.655 50.5191 167.501 48.4181C166.346 46.3169 165.77 43.8255 165.77 40.942C165.77 37.9914 166.354 35.4461 167.526 33.3114C168.698 31.1749 170.331 29.5347 172.429 28.3874C174.526 27.2417 176.938 26.6681 179.664 26.6681C182.461 26.6681 184.891 27.2603 186.954 28.4395C189.015 29.6205 190.623 31.2707 191.778 33.3904C192.931 35.5067 193.509 38.0418 193.509 40.9959C193.509 43.8777 192.938 46.3691 191.803 48.4685C190.667 50.5713 189.076 52.1762 187.032 53.2898C184.987 54.4002 182.548 54.9553 179.718 54.9553Z" fill="black"/>
<path d="M194.295 54.5908V24.1335L201.635 25.2286V37.6605H205.253L212.017 27.1363H220.25L211.441 40.2126L220.984 54.5908H212.491L205.568 44.1726H201.635V54.5908H194.295Z" fill="black"/>
<path d="M226.069 37.9724H238.075C238.04 37.0354 237.805 36.1573 237.367 35.3414C236.93 34.5255 236.283 33.866 235.428 33.3614C234.571 32.86 233.478 32.6077 232.15 32.6077C230.821 32.6077 229.712 32.8684 228.82 33.3899C227.929 33.9098 227.265 34.5793 226.829 35.3952C226.39 36.211 226.139 37.069 226.069 37.9724ZM232.306 54.9548C229.406 54.9548 226.941 54.3829 224.914 53.2355C222.887 52.0899 221.332 50.4682 220.249 48.3654C219.165 46.2642 218.623 43.8081 218.623 40.9954C218.623 38.1457 219.182 35.656 220.301 33.5195C221.418 31.3829 223 29.7074 225.045 28.4912C227.091 27.2765 229.512 26.6676 232.306 26.6676C234.405 26.6676 236.249 27.0158 237.84 27.7106C239.431 28.407 240.777 29.3777 241.878 30.6277C242.979 31.8776 243.799 33.3277 244.342 34.9779C244.883 36.6283 245.136 38.4064 245.102 40.3174C245.102 40.8036 245.085 41.273 245.048 41.7238C245.014 42.1764 244.942 42.6272 244.839 43.078H225.91C226.014 44.1194 226.312 45.0749 226.802 45.943C227.29 46.811 227.981 47.499 228.874 48.0003C229.766 48.505 230.874 48.7556 232.203 48.7556C233.076 48.7556 233.881 48.6615 234.616 48.4697C235.349 48.2779 235.979 47.9751 236.504 47.5579C237.025 47.1423 237.393 46.6546 237.604 46.0994H244.839C244.385 48.1484 243.537 49.834 242.296 51.1529C241.053 52.4735 239.56 53.4358 237.813 54.0447C236.065 54.6503 234.23 54.9548 232.306 54.9548Z" fill="black"/>
<path d="M245.889 54.5908V27.1363H252.756L253.124 30.3158C253.891 29.377 254.774 28.6402 255.77 28.1003C256.768 27.5619 257.78 27.1901 258.813 26.9815C259.844 26.7713 260.779 26.6687 261.617 26.6687C264.274 26.6687 266.344 27.2423 267.832 28.3879C269.317 29.5335 270.384 31.0711 271.029 32.9972C271.676 34.9268 272 37.07 272 39.4302V54.5908H264.66V40.3707C264.66 39.5362 264.589 38.7019 264.449 37.8691C264.309 37.0347 264.056 36.2727 263.688 35.5779C263.323 34.8814 262.806 34.3263 262.142 33.9091C261.478 33.4936 260.603 33.2833 259.52 33.2833C258.123 33.2833 256.951 33.6315 256.007 34.3263C255.063 35.021 254.365 35.9581 253.911 37.139C253.456 38.32 253.227 39.6237 253.227 41.0452V54.5908H245.889Z" fill="black"/>
<path d="M42.4667 36.422C41.5185 38.7941 39.9945 40.779 37.8779 42.3604C35.7614 43.9417 32.9675 44.7324 29.5134 44.7324C26.1438 44.7324 23.4007 43.9921 21.2672 42.4782C19.1167 40.981 17.542 39.0296 16.5431 36.6575C15.544 34.3024 15.036 31.8463 15.036 29.3228C15.036 26.7827 15.5271 24.3434 16.5092 21.9715C17.4744 19.5994 19.0321 17.648 21.1317 16.1172C23.2484 14.5862 26.0083 13.8124 29.4286 13.8124C32.1379 13.8124 34.4068 14.3003 36.2525 15.276C38.0981 16.2349 39.5712 17.4966 40.6888 19.0611C41.7894 20.6256 42.6022 22.3079 43.1271 24.1079C43.6351 25.9079 43.889 27.6743 43.889 29.3901C43.889 31.7117 43.4149 34.05 42.4667 36.422ZM51.4578 47.6091C49.646 43.6053 48.7317 38.6426 48.7317 32.7043V6.1077C47.5464 5.14881 46.2596 4.30768 44.8711 3.56749C40.4855 1.19551 35.3889 0.00109863 29.598 0.00109863C23.7394 0.00109863 18.5919 1.21233 14.1555 3.63478C9.70232 6.05724 6.23115 9.47222 3.74208 13.863C1.253 18.2368 0 23.4181 0 29.3901C0 35.2108 1.21913 40.308 3.62355 44.6988C6.02796 49.0894 9.43139 52.4876 13.817 54.91C18.2194 57.3325 23.333 58.5437 29.1917 58.5437C35.1518 58.5437 40.3671 57.2988 44.8373 54.7923C47.665 53.211 50.0863 51.2427 52.1012 48.8875C51.8642 48.467 51.661 48.0464 51.4578 47.6091Z" fill="#F2213A"/>
<path d="M84.4931 15.4274V33.5959C84.4931 35.5977 84.2391 37.5491 83.7143 39.4501C83.2063 41.3678 82.2242 42.9492 80.7511 44.1772C79.2949 45.4221 77.1274 46.0445 74.2489 46.0445C71.4382 46.0445 69.2369 45.4389 67.6622 44.2278C66.1045 42.9996 65.0039 41.452 64.3773 39.5342C63.7509 37.6332 63.446 35.6481 63.446 33.5959V1.86841H48.7317V6.1077C51.3393 8.14324 53.4897 10.6498 55.2 13.6106C57.689 17.9508 58.925 23.0648 58.925 29.0033C58.925 34.807 57.706 39.9379 55.2338 44.3791C54.3195 46.011 53.2866 47.5082 52.1012 48.8875C53.8962 52.2689 56.4698 54.8596 59.8225 56.6596C63.5985 58.6783 68.3396 59.6876 74.0966 59.6876C79.8875 59.6876 84.6286 58.6616 88.3199 56.6091C89.5898 55.9026 90.7581 55.0783 91.8079 54.1194V15.4274H84.4931Z" fill="#00B754"/>
<path d="M58.925 29.0033C58.925 34.807 57.706 39.9379 55.2338 44.3791C54.3195 46.011 53.2866 47.5082 52.1012 48.8875C51.8642 48.467 51.661 48.0464 51.4578 47.6091C49.646 43.6053 48.7317 38.6426 48.7317 32.7043V6.1077C51.3393 8.14324 53.4897 10.6498 55.2 13.6106C57.689 17.9508 58.925 23.0648 58.925 29.0033Z" fill="#FF9D0A"/>
<path d="M74.74 15.4266L84.4931 15.4274L84.4932 1.86758H74.74V15.4266ZM99.2074 1.86758V32.7034C99.2074 38.5745 98.3101 43.5203 96.5152 47.5241C95.3638 50.1484 93.7891 52.3531 91.8079 54.1194V59.0308H106.522V15.4266H123.675V1.86758H99.2074Z" fill="#752ED1"/>
<path d="M99.2074 1.86758V32.7034C99.2074 38.5745 98.3101 43.5203 96.5152 47.5241C95.3638 50.1484 93.7891 52.3531 91.8079 54.1194V15.4274H84.4931L84.4932 1.86758H99.2074Z" fill="#297CE7"/>
</svg>
